<svg width="31" height="35" viewBox="0 0 31 35" fill="none" xmlns="http://www.w3.org/2000/svg">
<path d="M16.7812 0.95996L29.1562 8.10296C29.9678 8.57246 30.4688 9.43796 30.4688 10.3755V24.663C30.4689 25.1239 30.3476 25.5767 30.1172 25.9758C29.8868 26.375 29.5554 26.7065 29.1562 26.937L16.7812 34.08C16.3822 34.3104 15.9295 34.4316 15.4688 34.4316C15.008 34.4316 14.5553 34.3104 14.1562 34.08L1.78125 26.9355C1.38232 26.7051 1.05102 26.3739 0.820638 25.975C0.590253 25.5761 0.468893 25.1236 0.46875 24.663V10.3755C0.46875 9.43796 0.96975 8.57246 1.78125 8.10296L14.1562 0.95996C14.5553 0.729568 15.008 0.608276 15.4688 0.608276C15.9295 0.608276 16.3822 0.729568 16.7812 0.95996ZM15.2812 2.90696L3.84375 9.50996L15.4688 16.221L27.0938 9.50996L15.6562 2.90696C15.5992 2.87405 15.5346 2.85672 15.4688 2.85672C15.4029 2.85672 15.3383 2.87405 15.2812 2.90696ZM16.5938 31.5915L28.0312 24.9885C28.0881 24.9556 28.1354 24.9084 28.1683 24.8515C28.2012 24.7947 28.2186 24.7302 28.2188 24.6645V11.4585L16.5938 18.1695V31.5915ZM2.71875 11.46V24.6645C2.71875 24.7995 2.79075 24.9225 2.90625 24.9885L14.3438 31.5915V18.171L2.71875 11.46Z" fill="#FF8E61"/>
</svg>
