<svg width="16" height="18" viewBox="0 0 16 18" fill="none" xmlns="http://www.w3.org/2000/svg">
<path fill-rule="evenodd" clip-rule="evenodd" d="M3.49977 1.75C3.49977 1.5315 5.75777 0 7.99977 0C10.2418 0 12.4998 1.5315 12.4998 1.75C12.4998 2.53 12.4168 2.992 12.3468 3.2435C12.3003 3.4085 12.1458 3.5 11.9743 3.5H4.02527C3.85378 3.5 3.69927 3.4085 3.65277 3.2435C3.58277 2.992 3.49977 2.53 3.49977 1.75ZM7.24977 1.5C7.11717 1.5 6.98999 1.55268 6.89622 1.64645C6.80245 1.74021 6.74977 1.86739 6.74977 2C6.74977 2.13261 6.80245 2.25978 6.89622 2.35355C6.98999 2.44732 7.11717 2.5 7.24977 2.5H8.74977C8.88238 2.5 9.00956 2.44732 9.10333 2.35355C9.1971 2.25978 9.24977 2.13261 9.24977 2C9.24977 1.86739 9.1971 1.74021 9.10333 1.64645C9.00956 1.55268 8.88238 1.5 8.74977 1.5H7.24977ZM4.01877 6.609C2.35377 6.094 2.77377 5.174 3.40877 4.5H12.7298C13.2378 5.149 13.5103 6.0245 11.9748 6.5485C11.9914 6.69683 11.9998 6.84733 11.9998 7C11.9996 7.54163 11.8893 8.07758 11.6758 8.57535C11.4623 9.07311 11.1499 9.52233 10.7576 9.89576C10.3652 10.2692 9.90115 10.559 9.39346 10.7478C8.88576 10.9365 8.34503 11.0201 7.80404 10.9936C7.26306 10.9671 6.73309 10.831 6.24628 10.5936C5.75946 10.3561 5.32594 10.0223 4.97199 9.61231C4.61804 9.20233 4.35105 8.72473 4.1872 8.20847C4.02334 7.69221 3.96605 7.14806 4.01877 6.609ZM7.86378 7C9.18478 7 10.2088 6.93 10.9938 6.808C10.9978 6.87133 10.9998 6.93533 10.9998 7C10.9994 7.40037 10.9189 7.79662 10.763 8.1654C10.6072 8.53418 10.379 8.86802 10.0921 9.14726C9.80519 9.4265 9.46527 9.64548 9.0924 9.7913C8.71953 9.93712 8.32123 10.0068 7.921 9.99631C7.52077 9.9858 7.12669 9.89528 6.76198 9.73008C6.39728 9.56489 6.06933 9.32837 5.79746 9.03445C5.52559 8.74054 5.31531 8.39517 5.179 8.01872C5.04269 7.64227 4.98311 7.24234 5.00377 6.8425C5.73527 6.9435 6.67278 7 7.86378 7ZM12.2083 14.3C11.7561 13.5943 11.1336 13.0138 10.3981 12.6119C9.66267 12.2099 8.8379 11.9995 7.99977 12C7.16131 11.9994 6.33617 12.2098 5.60042 12.6119C4.86467 13.0141 4.24199 13.5949 3.78977 14.301C3.62157 14.0428 3.36391 13.8558 3.06627 13.776L2.10027 13.5175C1.78009 13.4317 1.43893 13.4765 1.15181 13.6422C0.864703 13.8079 0.65516 14.0808 0.569274 14.401L0.181274 15.85C0.13878 16.0086 0.127938 16.174 0.149367 16.3367C0.170795 16.4995 0.224075 16.6564 0.306164 16.7986C0.388252 16.9408 0.497542 17.0654 0.627791 17.1653C0.75804 17.2652 0.906697 17.3385 1.06527 17.381L2.03077 17.64C2.1932 17.6835 2.36274 17.6938 2.52924 17.6703C2.69574 17.6467 2.85578 17.5898 2.99977 17.503C3.00017 17.6356 3.05323 17.7626 3.14728 17.8561C3.24133 17.9496 3.36867 18.0019 3.50127 18.0015C3.63388 18.0011 3.7609 17.948 3.85439 17.854C3.94788 17.7599 4.00017 17.6326 3.99977 17.5V17C3.99977 16.8093 4.01277 16.6222 4.03877 16.4385L6.64077 17.136C6.76156 17.3945 6.95357 17.6132 7.19429 17.7665C7.435 17.9197 7.71443 18.0011 7.99977 18.0011C8.28512 18.0011 8.56455 17.9197 8.80526 17.7665C9.04598 17.6132 9.23799 17.3945 9.35878 17.136L11.9608 16.4385C11.9864 16.6222 11.9994 16.8093 11.9998 17V17.5C11.9991 17.6326 12.0512 17.76 12.1445 17.8543C12.2378 17.9485 12.3647 18.0018 12.4973 18.0025C12.6299 18.0032 12.7573 17.9511 12.8516 17.8578C12.9458 17.7645 12.9991 17.6376 12.9998 17.505C13.2798 17.673 13.6258 17.7315 13.9663 17.64L14.9323 17.3815C15.0909 17.339 15.2395 17.2657 15.3698 17.1658C15.5 17.0659 15.6093 16.9413 15.6914 16.7991C15.7735 16.6569 15.8268 16.5 15.8482 16.3372C15.8696 16.1745 15.8588 16.0091 15.8163 15.8505L15.4278 14.4015C15.3419 14.0813 15.1323 13.8084 14.8452 13.6427C14.5581 13.477 14.217 13.4322 13.8968 13.518L12.9308 13.7765C12.6338 13.8561 12.3766 14.0428 12.2083 14.3ZM4.30127 15.473C4.57153 14.8199 5.00979 14.25 5.57155 13.8211C6.13332 13.3922 6.79858 13.1196 7.49977 13.031V15.0855C7.27556 15.1647 7.07339 15.2961 6.90995 15.4689C6.74651 15.6416 6.62649 15.8507 6.55978 16.079L4.30127 15.473ZM11.6983 15.473C11.428 14.8199 10.9898 14.25 10.428 13.8211C9.86623 13.3922 9.20097 13.1196 8.49977 13.031V15.0855C8.95177 15.2455 9.30477 15.6155 9.43977 16.079L11.6983 15.473ZM7.99977 17C8.13238 17 8.25956 16.9473 8.35333 16.8536C8.4471 16.7598 8.49977 16.6326 8.49977 16.5C8.49977 16.3674 8.4471 16.2402 8.35333 16.1464C8.25956 16.0527 8.13238 16 7.99977 16C7.86717 16 7.73999 16.0527 7.64622 16.1464C7.55245 16.2402 7.49977 16.3674 7.49977 16.5C7.49977 16.6326 7.55245 16.7598 7.64622 16.8536C7.73999 16.9473 7.86717 17 7.99977 17Z" fill="#202224"/>
</svg>
