<svg width="39" height="39" viewBox="0 0 39 39" fill="none" xmlns="http://www.w3.org/2000/svg">
<path fill-rule="evenodd" clip-rule="evenodd" d="M12.1874 7.71875C12.1874 7.36369 15.8566 4.875 19.4999 4.875C23.1431 4.875 26.8124 7.36369 26.8124 7.71875C26.8124 8.98625 26.6775 9.737 26.5638 10.1457C26.4882 10.4138 26.2371 10.5625 25.9584 10.5625H13.0413C12.7626 10.5625 12.5116 10.4138 12.436 10.1457C12.3223 9.737 12.1874 8.98625 12.1874 7.71875ZM18.2811 7.3125C18.0656 7.3125 17.859 7.3981 17.7066 7.55048C17.5542 7.70285 17.4686 7.90951 17.4686 8.125C17.4686 8.34049 17.5542 8.54715 17.7066 8.69952C17.859 8.8519 18.0656 8.9375 18.2811 8.9375H20.7186C20.9341 8.9375 21.1408 8.8519 21.2932 8.69952C21.4455 8.54715 21.5311 8.34049 21.5311 8.125C21.5311 7.90951 21.4455 7.70285 21.2932 7.55048C21.1408 7.3981 20.9341 7.3125 20.7186 7.3125H18.2811ZM13.0308 15.6146C10.3251 14.7778 11.0076 13.2828 12.0395 12.1875H27.1861C28.0116 13.2421 28.4544 14.6648 25.9593 15.5163C25.9863 15.7574 25.9999 16.0019 25.9999 16.25C25.9995 17.1302 25.8204 18.0011 25.4734 18.8099C25.1264 19.6188 24.6188 20.3488 23.9813 20.9556C23.3437 21.5624 22.5896 22.0334 21.7646 22.3401C20.9396 22.6468 20.0609 22.7827 19.1818 22.7396C18.3027 22.6966 17.4415 22.4754 16.6504 22.0896C15.8594 21.7037 15.1549 21.1612 14.5797 20.495C14.0046 19.8288 13.5707 19.0527 13.3044 18.2138C13.0382 17.3749 12.9451 16.4906 13.0308 15.6146ZM19.2789 16.25C21.4255 16.25 23.0895 16.1362 24.3651 15.938C24.3716 16.0409 24.3749 16.1449 24.3749 16.25C24.3743 16.9006 24.2435 17.5445 23.9902 18.1438C23.7369 18.743 23.3662 19.2855 22.8999 19.7393C22.4337 20.1931 21.8813 20.5489 21.2754 20.7859C20.6695 21.0228 20.0222 21.1361 19.3719 21.119C18.7215 21.1019 18.0811 20.9548 17.4885 20.6864C16.8958 20.4179 16.3629 20.0336 15.9211 19.556C15.4793 19.0784 15.1376 18.5172 14.9161 17.9054C14.6946 17.2937 14.5978 16.6438 14.6314 15.9941C15.8201 16.1582 17.3435 16.25 19.2789 16.25ZM26.3387 28.1125C25.6039 26.9658 24.5923 26.0224 23.3972 25.3693C22.2021 24.7161 20.8618 24.3742 19.4999 24.375C18.1374 24.374 16.7965 24.7159 15.6009 25.3694C14.4053 26.0229 13.3935 26.9668 12.6586 28.1141C12.3853 27.6946 11.9666 27.3907 11.4829 27.261L9.91319 26.8409C9.39289 26.7015 8.8385 26.7743 8.37194 27.0436C7.90539 27.3128 7.56488 27.7563 7.42531 28.2766L6.79481 30.6313C6.72576 30.8889 6.70814 31.1577 6.74296 31.4222C6.77779 31.6867 6.86437 31.9417 6.99776 32.1727C7.13115 32.4037 7.30875 32.6062 7.5204 32.7686C7.73206 32.931 7.97363 33.0501 8.23131 33.1191L9.80025 33.54C10.0642 33.6107 10.3397 33.6274 10.6103 33.5892C10.8808 33.5509 11.1409 33.4585 11.3749 33.3174C11.3755 33.5329 11.4617 33.7393 11.6146 33.8912C11.7674 34.0431 11.9743 34.1281 12.1898 34.1274C12.4053 34.1268 12.6117 34.0406 12.7636 33.8877C12.9155 33.7349 13.0005 33.528 12.9999 33.3125V32.5C12.9999 32.1902 13.021 31.886 13.0633 31.5876L17.2915 32.721C17.4878 33.1411 17.7998 33.4965 18.191 33.7455C18.5821 33.9945 19.0362 34.1268 19.4999 34.1268C19.9636 34.1268 20.4176 33.9945 20.8088 33.7455C21.2 33.4965 21.512 33.1411 21.7083 32.721L25.9365 31.5876C25.9782 31.886 25.9993 32.1902 25.9999 32.5V33.3125C25.9988 33.528 26.0834 33.7351 26.235 33.8882C26.3866 34.0413 26.5928 34.128 26.8083 34.1291C27.0238 34.1301 27.2309 34.0456 27.384 33.894C27.5372 33.7423 27.6238 33.5361 27.6249 33.3206C28.0799 33.5936 28.6421 33.6887 29.1954 33.54L30.7652 33.1199C31.0229 33.0509 31.2644 32.9318 31.4761 32.7694C31.6878 32.607 31.8654 32.4046 31.9987 32.1735C32.1321 31.9425 32.2187 31.6875 32.2535 31.423C32.2884 31.1585 32.2707 30.8897 32.2017 30.6321L31.5704 28.2774C31.4308 27.7572 31.0903 27.3136 30.6237 27.0444C30.1572 26.7752 29.6028 26.7023 29.0825 26.8417L27.5128 27.2618C27.0302 27.3911 26.6122 27.6945 26.3387 28.1125ZM13.4898 30.0186C13.929 28.9574 14.6411 28.0313 15.554 27.3343C16.4669 26.6374 17.5479 26.1944 18.6874 26.0504V29.3889C18.323 29.5177 17.9945 29.7312 17.7289 30.0119C17.4633 30.2926 17.2683 30.6325 17.1599 31.0034L13.4898 30.0186ZM25.5099 30.0186C25.0708 28.9574 24.3586 28.0313 23.4457 27.3343C22.5329 26.6374 21.4518 26.1944 20.3124 26.0504V29.3889C21.0469 29.6489 21.6205 30.2502 21.8399 31.0034L25.5099 30.0186ZM19.4999 32.5C19.7154 32.5 19.922 32.4144 20.0744 32.262C20.2268 32.1097 20.3124 31.903 20.3124 31.6875C20.3124 31.472 20.2268 31.2653 20.0744 31.113C19.922 30.9606 19.7154 30.875 19.4999 30.875C19.2844 30.875 19.0777 30.9606 18.9254 31.113C18.773 31.2653 18.6874 31.472 18.6874 31.6875C18.6874 31.903 18.773 32.1097 18.9254 32.262C19.0777 32.4144 19.2844 32.5 19.4999 32.5Z" fill="#FF9500"/>
</svg>
