<svg width="83" height="23" viewBox="0 0 83 23" fill="none" xmlns="http://www.w3.org/2000/svg">
<path d="M0.13 22V0.849999H4.78V18.07H14.56V22H0.13ZM25.9654 22.33C24.4054 22.33 22.9754 22.07 21.6754 21.55C20.3954 21.03 19.2954 20.29 18.3754 19.33C17.4554 18.37 16.7454 17.22 16.2454 15.88C15.7654 14.54 15.5254 13.05 15.5254 11.41C15.5254 9.75 15.7654 8.26 16.2454 6.94C16.7454 5.6 17.4554 4.46 18.3754 3.52C19.2954 2.56 20.3954 1.82 21.6754 1.3C22.9754 0.779999 24.4054 0.519999 25.9654 0.519999C27.5454 0.519999 28.9754 0.779999 30.2554 1.3C31.5354 1.82 32.6354 2.55 33.5554 3.49C34.4754 4.43 35.1854 5.57 35.6854 6.91C36.1854 8.25 36.4354 9.74 36.4354 11.38C36.4354 13.04 36.1854 14.54 35.6854 15.88C35.1854 17.22 34.4754 18.37 33.5554 19.33C32.6354 20.29 31.5354 21.03 30.2554 21.55C28.9754 22.07 27.5454 22.33 25.9654 22.33ZM25.9654 18.37C27.1654 18.37 28.1754 18.1 28.9954 17.56C29.8154 17 30.4454 16.2 30.8854 15.16C31.3454 14.1 31.5754 12.85 31.5754 11.41C31.5754 9.95 31.3554 8.7 30.9154 7.66C30.4754 6.62 29.8354 5.83 28.9954 5.29C28.1554 4.75 27.1454 4.48 25.9654 4.48C24.8054 4.48 23.8054 4.75 22.9654 5.29C22.1254 5.83 21.4854 6.62 21.0454 7.66C20.6054 8.7 20.3854 9.95 20.3854 11.41C20.3854 12.85 20.6054 14.1 21.0454 15.16C21.4854 16.2 22.1254 17 22.9654 17.56C23.8054 18.1 24.8054 18.37 25.9654 18.37ZM50.5023 22.33C48.1223 22.33 46.1023 21.88 44.4423 20.98C42.8023 20.08 41.5523 18.82 40.6923 17.2C39.8323 15.58 39.4023 13.68 39.4023 11.5C39.4023 9.26 39.8423 7.32 40.7223 5.68C41.6223 4.04 42.9123 2.77 44.5923 1.87C46.2923 0.97 48.3123 0.519999 50.6523 0.519999C51.6523 0.519999 52.6123 0.619999 53.5323 0.819999C54.4523 0.999999 55.3023 1.26 56.0823 1.6C56.8823 1.94 57.5623 2.35 58.1223 2.83L56.6223 6.46C55.7023 5.78 54.7623 5.3 53.8023 5.02C52.8423 4.72 51.8023 4.57 50.6823 4.57C48.5423 4.57 46.9323 5.16 45.8523 6.34C44.7923 7.52 44.2623 9.24 44.2623 11.5C44.2623 13.76 44.8023 15.47 45.8823 16.63C46.9823 17.79 48.6023 18.37 50.7423 18.37C51.4623 18.37 52.2023 18.3 52.9623 18.16C53.7223 18.02 54.4723 17.82 55.2123 17.56L54.3423 19.45V13.69H49.7823V10.33H58.1823V20.71C57.5023 21.05 56.7323 21.34 55.8723 21.58C55.0323 21.82 54.1523 22 53.2323 22.12C52.3123 22.26 51.4023 22.33 50.5023 22.33ZM72.108 22.33C70.548 22.33 69.118 22.07 67.818 21.55C66.538 21.03 65.438 20.29 64.518 19.33C63.598 18.37 62.888 17.22 62.388 15.88C61.908 14.54 61.668 13.05 61.668 11.41C61.668 9.75 61.908 8.26 62.388 6.94C62.888 5.6 63.598 4.46 64.518 3.52C65.438 2.56 66.538 1.82 67.818 1.3C69.118 0.779999 70.548 0.519999 72.108 0.519999C73.688 0.519999 75.118 0.779999 76.398 1.3C77.678 1.82 78.778 2.55 79.698 3.49C80.618 4.43 81.328 5.57 81.828 6.91C82.328 8.25 82.578 9.74 82.578 11.38C82.578 13.04 82.328 14.54 81.828 15.88C81.328 17.22 80.618 18.37 79.698 19.33C78.778 20.29 77.678 21.03 76.398 21.55C75.118 22.07 73.688 22.33 72.108 22.33ZM72.108 18.37C73.308 18.37 74.318 18.1 75.138 17.56C75.958 17 76.588 16.2 77.028 15.16C77.488 14.1 77.718 12.85 77.718 11.41C77.718 9.95 77.498 8.7 77.058 7.66C76.618 6.62 75.978 5.83 75.138 5.29C74.298 4.75 73.288 4.48 72.108 4.48C70.948 4.48 69.948 4.75 69.108 5.29C68.268 5.83 67.628 6.62 67.188 7.66C66.748 8.7 66.528 9.95 66.528 11.41C66.528 12.85 66.748 14.1 67.188 15.16C67.628 16.2 68.268 17 69.108 17.56C69.948 18.1 70.948 18.37 72.108 18.37Z" fill="#8787AD"/>
</svg>
