<svg width="39" height="39" viewBox="0 0 39 39" fill="none" xmlns="http://www.w3.org/2000/svg">
<path d="M30.875 4.875H24.0825C23.4 2.99 21.6125 1.625 19.5 1.625C17.3875 1.625 15.6 2.99 14.9175 4.875H8.125C7.26305 4.875 6.4364 5.21741 5.8269 5.8269C5.21741 6.4364 4.875 7.26305 4.875 8.125V30.875C4.875 31.737 5.21741 32.5636 5.8269 33.1731C6.4364 33.7826 7.26305 34.125 8.125 34.125H30.875C31.737 34.125 32.5636 33.7826 33.1731 33.1731C33.7826 32.5636 34.125 31.737 34.125 30.875V8.125C34.125 7.26305 33.7826 6.4364 33.1731 5.8269C32.5636 5.21741 31.737 4.875 30.875 4.875ZM19.5 4.875C19.931 4.875 20.3443 5.0462 20.649 5.35095C20.9538 5.6557 21.125 6.06902 21.125 6.5C21.125 6.93098 20.9538 7.3443 20.649 7.64905C20.3443 7.95379 19.931 8.125 19.5 8.125C19.069 8.125 18.6557 7.95379 18.351 7.64905C18.0462 7.3443 17.875 6.93098 17.875 6.5C17.875 6.06902 18.0462 5.6557 18.351 5.35095C18.6557 5.0462 19.069 4.875 19.5 4.875ZM11.375 11.375H27.625V8.125H30.875V30.875H8.125V8.125H11.375V11.375Z" fill="#00B69B"/>
</svg>
