<svg width="32" height="32" viewBox="0 0 32 32" fill="none" xmlns="http://www.w3.org/2000/svg">
<path d="M23.9997 24.6667C23.4692 24.6667 22.9605 24.456 22.5855 24.0809C22.2104 23.7058 21.9997 23.1971 21.9997 22.6667C21.9997 22.1363 22.2104 21.6276 22.5855 21.2525C22.9605 20.8774 23.4692 20.6667 23.9997 20.6667C24.5301 20.6667 25.0388 20.8774 25.4139 21.2525C25.789 21.6276 25.9997 22.1363 25.9997 22.6667C25.9997 23.1971 25.789 23.7058 25.4139 24.0809C25.0388 24.456 24.5301 24.6667 23.9997 24.6667ZM25.9997 12.6667L28.613 16H22.6663V12.6667M7.99967 24.6667C7.46924 24.6667 6.96053 24.456 6.58546 24.0809C6.21039 23.7058 5.99967 23.1971 5.99967 22.6667C5.99967 22.1363 6.21039 21.6276 6.58546 21.2525C6.96053 20.8774 7.46924 20.6667 7.99967 20.6667C8.53011 20.6667 9.03882 20.8774 9.41389 21.2525C9.78896 21.6276 9.99967 22.1363 9.99967 22.6667C9.99967 23.1971 9.78896 23.7058 9.41389 24.0809C9.03882 24.456 8.53011 24.6667 7.99967 24.6667ZM26.6663 10.6667H22.6663V5.33337H3.99967C2.51967 5.33337 1.33301 6.52004 1.33301 8.00004V22.6667H3.99967C3.99967 23.7276 4.4211 24.745 5.17125 25.4951C5.92139 26.2453 6.93881 26.6667 7.99967 26.6667C9.06054 26.6667 10.078 26.2453 10.8281 25.4951C11.5782 24.745 11.9997 23.7276 11.9997 22.6667H19.9997C19.9997 23.7276 20.4211 24.745 21.1712 25.4951C21.9214 26.2453 22.9388 26.6667 23.9997 26.6667C25.0605 26.6667 26.078 26.2453 26.8281 25.4951C27.5782 24.745 27.9997 23.7276 27.9997 22.6667H30.6663V16L26.6663 10.6667Z" fill="#4379EE"/>
</svg>
