<svg width="18" height="16" viewBox="0 0 18 16" fill="none" xmlns="http://www.w3.org/2000/svg">
<path d="M4.05 14.2997C1.81406 14.2997 0 12.4856 0 10.2497C0 8.48346 1.13062 6.98158 2.70562 6.42752C2.70281 6.35158 2.7 6.27564 2.7 6.19971C2.7 3.71346 4.71375 1.69971 7.2 1.69971C8.86781 1.69971 10.3219 2.60533 11.1009 3.95533C11.5284 3.66846 12.0459 3.49971 12.6 3.49971C14.0906 3.49971 15.3 4.70908 15.3 6.19971C15.3 6.54283 15.2353 6.86908 15.12 7.17283C16.7625 7.50471 18 8.95877 18 10.6997C18 12.6881 16.3884 14.2997 14.4 14.2997H4.05ZM6.27187 9.60283L8.52187 11.8528C8.78625 12.1172 9.21375 12.1172 9.47531 11.8528L11.7253 9.60283C11.9897 9.33846 11.9897 8.91096 11.7253 8.64939C11.4609 8.38783 11.0334 8.38502 10.7719 8.64939L9.675 9.74627V5.97471C9.675 5.60064 9.37406 5.29971 9 5.29971C8.62594 5.29971 8.325 5.60064 8.325 5.97471V9.74627L7.22812 8.64939C6.96375 8.38502 6.53625 8.38502 6.27469 8.64939C6.01312 8.91377 6.01031 9.34127 6.27469 9.60283H6.27187Z" fill="#6E39CB"/>
</svg>
